<!-- Generated by IcoMoon.io -->
<svg version="1.1" xmlns="http://www.w3.org/2000/svg" width="768" height="768" viewBox="0 0 768 768">
<title></title>
<g id="icomoon-ignore">
</g>
<path d="M562.752 224h-82.752v-82.752zM662.624 233.376l-192-192c-2.944-2.944-6.464-5.312-10.368-6.944s-8.096-2.432-12.256-2.432h-256c-26.496 0-50.56 10.784-67.872 28.128s-28.128 41.376-28.128 67.872v512c0 26.496 10.784 50.56 28.128 67.872s41.376 28.128 67.872 28.128h384c26.496 0 50.56-10.784 67.872-28.128s28.128-41.376 28.128-67.872v-384c0-8.832-3.584-16.832-9.376-22.624zM416 96v160c0 17.664 14.336 32 32 32h160v352c0 8.832-3.552 16.8-9.376 22.624s-13.792 9.376-22.624 9.376h-384c-8.832 0-16.8-3.552-22.624-9.376s-9.376-13.792-9.376-22.624v-512c0-8.832 3.552-16.8 9.376-22.624s13.792-9.376 22.624-9.376zM512 384h-256c-17.664 0-32 14.336-32 32s14.336 32 32 32h256c17.664 0 32-14.336 32-32s-14.336-32-32-32zM512 512h-256c-17.664 0-32 14.336-32 32s14.336 32 32 32h256c17.664 0 32-14.336 32-32s-14.336-32-32-32zM320 256h-64c-17.664 0-32 14.336-32 32s14.336 32 32 32h64c17.664 0 32-14.336 32-32s-14.336-32-32-32z"></path>
</svg>
