<?xml version="1.0" encoding="UTF-8" standalone="no"?>
<!DOCTYPE svg PUBLIC "-//W3C//DTD SVG 1.1//EN" "http://www.w3.org/Graphics/SVG/1.1/DTD/svg11.dtd">
<svg width="100%" height="100%" viewBox="0 0 200 75" version="1.1" xmlns="http://www.w3.org/2000/svg" xmlns:xlink="http://www.w3.org/1999/xlink" xml:space="preserve" xmlns:serif="http://www.serif.com/" style="fill-rule:evenodd;clip-rule:evenodd;stroke-linejoin:round;stroke-miterlimit:2;">
    <g transform="matrix(1,0,0,1,-607,-307)">
        <g transform="matrix(1.086,0,0,1.086,250.386,-126.72)">
            <g>
                <g>
                    <g transform="matrix(0.12836,0,0,0.12836,270.521,363.691)">
                        <g transform="matrix(1.12262,0,0,1.12262,-80.2872,-63.277)">
                            <circle cx="709.5" cy="540.5" r="236.5" style="fill:rgb(217,141,141);"/>
                        </g>
                        <g transform="matrix(1,0,0,1,6.71279,3)">
                            <circle cx="709.5" cy="540.5" r="236.5" style="fill:rgb(240,240,240);"/>
                        </g>
                        <g transform="matrix(1.15924,0,0,1.15924,-105.388,-74.4081)">
                            <path d="M709.5,304L720.5,438L709.5,490.43L698.5,439L709.5,304ZM768.752,312L744.695,444.281L720.5,492.077L723.186,439.553L768.752,312ZM823.914,335.063L766.44,456.61L730.699,496.516L746.887,446.476L823.914,335.063ZM871.227,371.617L784.253,474.147L739.401,503.442L767.989,459.298L871.227,371.617ZM907.467,419.171L796.92,495.697L746.014,512.386L785.054,477.145L907.467,419.171ZM930.165,474.484L803.578,519.791L750.088,522.736L796.918,498.799L930.165,474.484ZM937.773,533.787L803.773,544.787L751.343,533.787L802.773,522.787L937.773,533.787ZM929.773,593.039L797.492,568.982L749.696,544.787L802.22,547.473L929.773,593.039ZM906.71,648.201L785.162,590.727L745.257,554.986L795.296,571.174L906.71,648.201ZM870.156,695.514L767.625,608.54L738.33,563.688L782.475,592.276L870.156,695.514ZM822.602,731.754L746.076,621.207L729.387,570.302L764.628,609.341L822.602,731.754ZM767.289,754.452L721.982,627.865L719.037,574.375L742.973,621.205L767.289,754.452ZM707.985,762.06L696.985,628.06L707.985,575.63L718.985,627.06L707.985,762.06ZM648.734,754.06L672.791,621.779L696.985,573.983L694.3,626.507L648.734,754.06ZM593.572,730.997L651.046,609.45L686.787,569.544L670.598,619.584L593.572,730.997ZM546.259,694.443L633.233,591.913L678.084,562.618L649.496,606.762L546.259,694.443ZM510.018,646.889L620.566,570.363L671.471,553.674L632.432,588.915L510.018,646.889ZM487.321,591.576L613.908,546.269L667.398,543.324L620.568,567.26L487.321,591.576ZM479.713,532.273L613.713,521.273L666.142,532.273L614.713,543.273L479.713,532.273ZM487.713,473.021L619.994,497.078L667.79,521.273L615.266,518.587L487.713,473.021ZM510.776,417.859L632.323,475.333L672.228,511.074L622.189,494.885L510.776,417.859ZM547.33,370.546L649.86,457.52L679.155,502.371L635.011,473.783L547.33,370.546ZM594.884,334.306L671.41,444.853L688.098,495.758L652.857,456.719L594.884,334.306ZM650.197,311.608L695.504,438.195L698.448,491.685L674.512,444.855L650.197,311.608Z" style="fill:rgb(211,78,78);"/>
                        </g>
                        <g transform="matrix(0.2244,0,0,0.2244,557.001,422.212)">
                            <circle cx="709.5" cy="540.5" r="236.5" style="fill:rgb(211,78,78);"/>
                        </g>
                    </g>
                    <g transform="matrix(0.604701,0,0,0.604701,-129.651,-29.3829)">
                        <g transform="matrix(0.380976,0,0,0.380991,902.307,759.675)">
                            <g transform="matrix(150,0,0,150,0,0)">
                                <path d="M0.343,-0.045L0.233,0.02L0.05,-0.255C0.039,-0.272 0.031,-0.286 0.026,-0.297C0.021,-0.308 0.019,-0.319 0.019,-0.33C0.019,-0.347 0.026,-0.361 0.041,-0.371C0.055,-0.381 0.074,-0.386 0.098,-0.386L0.115,-0.364C0.128,-0.345 0.144,-0.336 0.163,-0.336C0.183,-0.336 0.2,-0.344 0.213,-0.359C0.226,-0.374 0.232,-0.397 0.232,-0.428C0.232,-0.455 0.228,-0.478 0.22,-0.498C0.212,-0.518 0.204,-0.534 0.195,-0.545L-0.01,-0.545L-0.01,-0.639L0.707,-0.639L0.707,-0.545L0.624,-0.545L0.624,-0L0.501,-0L0.501,-0.237C0.492,-0.233 0.48,-0.23 0.465,-0.227C0.45,-0.224 0.432,-0.223 0.409,-0.223C0.385,-0.223 0.361,-0.226 0.336,-0.233C0.311,-0.24 0.29,-0.249 0.272,-0.26C0.26,-0.253 0.248,-0.248 0.234,-0.245C0.222,-0.242 0.209,-0.24 0.196,-0.24L0.189,-0.24L0.343,-0.045ZM0.395,-0.324C0.42,-0.324 0.442,-0.327 0.459,-0.332C0.475,-0.337 0.49,-0.345 0.501,-0.354L0.501,-0.545L0.32,-0.545C0.327,-0.535 0.335,-0.519 0.344,-0.497C0.353,-0.475 0.357,-0.448 0.357,-0.416C0.357,-0.4 0.355,-0.385 0.352,-0.371C0.349,-0.356 0.344,-0.343 0.339,-0.332C0.348,-0.329 0.357,-0.327 0.367,-0.326C0.376,-0.325 0.386,-0.324 0.395,-0.324Z" style="fill:rgb(211,78,78);fill-rule:nonzero;"/>
                            </g>
                            <g transform="matrix(150,0,0,150,104.55,0)">
                                <path d="M0.347,-0.045L0.237,0.02L0.054,-0.259C0.043,-0.276 0.035,-0.29 0.029,-0.301C0.025,-0.312 0.022,-0.323 0.022,-0.333C0.022,-0.35 0.029,-0.364 0.044,-0.375C0.059,-0.385 0.078,-0.39 0.102,-0.39L0.119,-0.367C0.126,-0.358 0.133,-0.352 0.141,-0.346C0.149,-0.342 0.158,-0.339 0.167,-0.339C0.186,-0.339 0.203,-0.346 0.216,-0.361C0.229,-0.375 0.236,-0.397 0.236,-0.428C0.236,-0.455 0.232,-0.478 0.224,-0.498C0.216,-0.518 0.208,-0.534 0.199,-0.545L-0.01,-0.545L-0.01,-0.639L0.436,-0.639L0.436,-0.545L0.324,-0.545C0.331,-0.535 0.339,-0.519 0.348,-0.497C0.357,-0.475 0.361,-0.448 0.361,-0.416C0.361,-0.387 0.356,-0.362 0.346,-0.341C0.336,-0.319 0.323,-0.301 0.308,-0.286C0.293,-0.272 0.275,-0.261 0.256,-0.254C0.237,-0.247 0.218,-0.243 0.2,-0.243C0.197,-0.243 0.195,-0.243 0.193,-0.244L0.347,-0.045Z" style="fill:rgb(211,78,78);fill-rule:nonzero;"/>
                            </g>
                            <g transform="matrix(150,0,0,150,159.95,0)">
                                <path d="M0.325,-0.338C0.317,-0.347 0.306,-0.355 0.293,-0.362C0.28,-0.368 0.264,-0.371 0.247,-0.371C0.221,-0.371 0.2,-0.364 0.183,-0.348C0.166,-0.334 0.157,-0.312 0.157,-0.284C0.157,-0.255 0.165,-0.233 0.182,-0.218C0.198,-0.202 0.219,-0.194 0.244,-0.194C0.265,-0.194 0.283,-0.201 0.3,-0.214C0.317,-0.227 0.325,-0.248 0.325,-0.275L0.325,-0.338ZM0.445,-0L0.324,-0L0.324,-0.129C0.317,-0.12 0.304,-0.113 0.287,-0.106C0.27,-0.099 0.249,-0.096 0.225,-0.096C0.199,-0.096 0.174,-0.1 0.151,-0.109C0.127,-0.118 0.106,-0.13 0.089,-0.147C0.072,-0.163 0.058,-0.183 0.048,-0.207C0.037,-0.231 0.032,-0.259 0.032,-0.29C0.032,-0.319 0.037,-0.345 0.047,-0.367C0.056,-0.389 0.069,-0.407 0.086,-0.423C0.103,-0.438 0.122,-0.449 0.144,-0.457C0.166,-0.464 0.189,-0.468 0.214,-0.468C0.235,-0.468 0.256,-0.465 0.276,-0.459C0.296,-0.453 0.312,-0.444 0.324,-0.433L0.324,-0.545L-0.01,-0.545L-0.01,-0.639L0.789,-0.639L0.789,-0.545L0.445,-0.545L0.445,-0.428C0.456,-0.439 0.471,-0.447 0.491,-0.454C0.511,-0.461 0.534,-0.464 0.559,-0.464C0.585,-0.464 0.609,-0.46 0.631,-0.452C0.653,-0.444 0.672,-0.432 0.688,-0.417C0.704,-0.402 0.717,-0.383 0.726,-0.362C0.735,-0.34 0.739,-0.315 0.739,-0.287C0.739,-0.256 0.734,-0.23 0.724,-0.206C0.713,-0.184 0.699,-0.164 0.681,-0.149C0.663,-0.134 0.642,-0.122 0.618,-0.115C0.594,-0.107 0.569,-0.103 0.542,-0.103C0.535,-0.103 0.526,-0.103 0.515,-0.105C0.503,-0.106 0.495,-0.107 0.49,-0.109L0.501,-0.203C0.506,-0.202 0.511,-0.201 0.515,-0.201L0.53,-0.201C0.553,-0.201 0.572,-0.208 0.589,-0.223C0.606,-0.237 0.614,-0.258 0.614,-0.287C0.614,-0.312 0.607,-0.332 0.592,-0.346C0.577,-0.36 0.557,-0.367 0.531,-0.367C0.504,-0.367 0.483,-0.359 0.468,-0.342C0.453,-0.325 0.445,-0.301 0.445,-0.27L0.445,-0Z" style="fill:rgb(211,78,78);fill-rule:nonzero;"/>
                            </g>
                            <g transform="matrix(150,0,0,150,275.6,0)">
                                <path d="M0.072,-0.545L-0.01,-0.545L-0.01,-0.639L0.278,-0.639L0.278,-0.545L0.195,-0.545L0.195,-0L0.072,-0L0.072,-0.545Z" style="fill:rgb(211,78,78);fill-rule:nonzero;"/>
                            </g>
                            <g transform="matrix(150,0,0,150,315.8,0)">
                                <path d="M0.347,-0.045L0.237,0.02L0.054,-0.259C0.043,-0.276 0.035,-0.29 0.029,-0.301C0.025,-0.312 0.022,-0.323 0.022,-0.333C0.022,-0.35 0.029,-0.364 0.044,-0.375C0.059,-0.385 0.078,-0.39 0.102,-0.39L0.119,-0.367C0.126,-0.358 0.133,-0.352 0.141,-0.346C0.149,-0.342 0.158,-0.339 0.167,-0.339C0.186,-0.339 0.203,-0.346 0.216,-0.361C0.229,-0.375 0.236,-0.397 0.236,-0.428C0.236,-0.455 0.232,-0.478 0.224,-0.498C0.216,-0.518 0.208,-0.534 0.199,-0.545L-0.01,-0.545L-0.01,-0.639L0.436,-0.639L0.436,-0.545L0.324,-0.545C0.331,-0.535 0.339,-0.519 0.348,-0.497C0.357,-0.475 0.361,-0.448 0.361,-0.416C0.361,-0.387 0.356,-0.362 0.346,-0.341C0.336,-0.319 0.323,-0.301 0.308,-0.286C0.293,-0.272 0.275,-0.261 0.256,-0.254C0.237,-0.247 0.218,-0.243 0.2,-0.243C0.197,-0.243 0.195,-0.243 0.193,-0.244L0.347,-0.045Z" style="fill:rgb(211,78,78);fill-rule:nonzero;"/>
                            </g>
                            <g transform="matrix(150,0,0,150,379.7,0)">
                                <path d="M0.065,-0.545L-0.01,-0.545L-0.01,-0.639L0.055,-0.639C0.05,-0.657 0.042,-0.675 0.031,-0.693C0.02,-0.71 0.008,-0.726 -0.006,-0.74C-0.02,-0.754 -0.035,-0.765 -0.052,-0.775C-0.069,-0.784 -0.086,-0.788 -0.104,-0.788C-0.131,-0.788 -0.151,-0.782 -0.164,-0.769C-0.178,-0.755 -0.185,-0.739 -0.185,-0.72C-0.185,-0.703 -0.181,-0.687 -0.174,-0.672C-0.167,-0.657 -0.159,-0.643 -0.15,-0.63L-0.238,-0.602L-0.253,-0.616C-0.27,-0.63 -0.283,-0.647 -0.294,-0.667C-0.305,-0.687 -0.311,-0.71 -0.311,-0.735C-0.311,-0.756 -0.307,-0.775 -0.298,-0.794C-0.29,-0.813 -0.278,-0.829 -0.262,-0.842C-0.246,-0.855 -0.226,-0.866 -0.202,-0.874C-0.179,-0.882 -0.151,-0.886 -0.12,-0.886C-0.078,-0.886 -0.041,-0.877 -0.008,-0.861C0.025,-0.844 0.053,-0.823 0.076,-0.798C0.099,-0.773 0.118,-0.746 0.133,-0.717C0.148,-0.688 0.158,-0.662 0.165,-0.639L0.263,-0.639L0.263,-0.545L0.188,-0.545L0.188,-0L0.065,-0L0.065,-0.545Z" style="fill:rgb(211,78,78);fill-rule:nonzero;"/>
                            </g>
                            <g transform="matrix(150,0,0,150,417.65,0)">
                            </g>
                        </g>
                        <g transform="matrix(0.380976,0,0,0.380991,902.307,808.253)">
                            <g transform="matrix(150,0,0,150,0,0)">
                                <path d="M0.311,-0.335C0.302,-0.342 0.293,-0.347 0.281,-0.351C0.271,-0.355 0.257,-0.357 0.242,-0.357C0.219,-0.357 0.199,-0.349 0.182,-0.335C0.165,-0.32 0.157,-0.297 0.157,-0.266C0.157,-0.242 0.162,-0.22 0.172,-0.2C0.182,-0.18 0.195,-0.162 0.211,-0.146C0.227,-0.129 0.245,-0.115 0.264,-0.102C0.283,-0.09 0.303,-0.079 0.322,-0.07L0.245,0.021C0.218,0.008 0.191,-0.007 0.166,-0.025C0.141,-0.044 0.118,-0.065 0.098,-0.089C0.078,-0.113 0.062,-0.14 0.05,-0.17C0.038,-0.199 0.032,-0.232 0.032,-0.267C0.032,-0.299 0.037,-0.327 0.048,-0.35C0.059,-0.373 0.073,-0.393 0.09,-0.408C0.107,-0.423 0.128,-0.435 0.151,-0.443C0.173,-0.45 0.197,-0.454 0.221,-0.454C0.274,-0.454 0.319,-0.438 0.356,-0.407C0.368,-0.42 0.384,-0.431 0.403,-0.44C0.422,-0.448 0.443,-0.452 0.466,-0.452C0.488,-0.452 0.505,-0.45 0.516,-0.446L0.516,-0.545L-0.01,-0.545L-0.01,-0.639L0.722,-0.639L0.722,-0.545L0.639,-0.545L0.639,-0L0.516,-0L0.516,-0.353C0.513,-0.354 0.509,-0.355 0.506,-0.356C0.503,-0.357 0.498,-0.357 0.492,-0.357C0.467,-0.357 0.448,-0.345 0.436,-0.32C0.423,-0.295 0.416,-0.255 0.415,-0.2L0.292,-0.2C0.292,-0.229 0.294,-0.256 0.298,-0.28C0.301,-0.303 0.306,-0.322 0.311,-0.335Z" style="fill:rgb(211,78,78);fill-rule:nonzero;"/>
                            </g>
                            <g transform="matrix(150,0,0,150,106.8,0)">
                                <path d="M0.072,-0.545L-0.01,-0.545L-0.01,-0.639L0.278,-0.639L0.278,-0.545L0.195,-0.545L0.195,-0L0.072,-0L0.072,-0.545Z" style="fill:rgb(211,78,78);fill-rule:nonzero;"/>
                            </g>
                            <g transform="matrix(150,0,0,150,150.5,0)">
                                <path d="M0.151,0.005C0.136,0.003 0.122,-0.001 0.108,-0.007C0.093,-0.012 0.08,-0.019 0.069,-0.028C0.058,-0.036 0.049,-0.045 0.042,-0.056C0.035,-0.067 0.031,-0.078 0.031,-0.091C0.031,-0.11 0.038,-0.126 0.051,-0.139C0.064,-0.152 0.083,-0.158 0.107,-0.158L0.179,-0.087C0.2,-0.085 0.22,-0.085 0.239,-0.086C0.258,-0.088 0.276,-0.092 0.291,-0.097C0.306,-0.102 0.318,-0.109 0.327,-0.118C0.336,-0.127 0.34,-0.138 0.34,-0.151C0.34,-0.167 0.333,-0.18 0.319,-0.189C0.305,-0.198 0.283,-0.203 0.253,-0.203C0.235,-0.203 0.218,-0.202 0.203,-0.201C0.188,-0.199 0.17,-0.196 0.149,-0.191C0.135,-0.198 0.121,-0.206 0.108,-0.217C0.094,-0.228 0.081,-0.24 0.07,-0.254C0.059,-0.267 0.05,-0.282 0.043,-0.298C0.035,-0.314 0.032,-0.331 0.032,-0.348C0.032,-0.391 0.047,-0.423 0.076,-0.445C0.105,-0.466 0.145,-0.477 0.195,-0.477L0.291,-0.477L0.291,-0.545L-0.01,-0.545L-0.01,-0.639L0.51,-0.639L0.51,-0.545L0.413,-0.545L0.413,-0.381L0.222,-0.381C0.199,-0.381 0.182,-0.378 0.172,-0.371C0.162,-0.364 0.157,-0.353 0.157,-0.339C0.157,-0.329 0.16,-0.32 0.165,-0.312C0.17,-0.303 0.176,-0.296 0.184,-0.29C0.203,-0.294 0.22,-0.297 0.234,-0.299C0.25,-0.3 0.266,-0.301 0.283,-0.301C0.31,-0.301 0.335,-0.298 0.358,-0.291C0.381,-0.284 0.4,-0.275 0.416,-0.262C0.432,-0.249 0.445,-0.234 0.454,-0.217C0.463,-0.2 0.467,-0.18 0.467,-0.158C0.467,-0.132 0.462,-0.109 0.451,-0.09C0.44,-0.071 0.426,-0.054 0.406,-0.041C0.388,-0.028 0.365,-0.017 0.34,-0.01C0.314,-0.002 0.286,0.003 0.255,0.005L0.364,0.103L0.265,0.165L0.151,0.005Z" style="fill:rgb(211,78,78);fill-rule:nonzero;"/>
                            </g>
                            <g transform="matrix(150,0,0,150,225.5,0)">
                                <path d="M0.35,-0.387L0.35,-0.545L-0.01,-0.545L-0.01,-0.639L0.556,-0.639L0.556,-0.545L0.473,-0.545L0.473,-0L0.35,-0L0.35,-0.29L0.185,-0.29L0.191,-0.202C0.188,-0.199 0.181,-0.195 0.171,-0.191C0.16,-0.186 0.148,-0.184 0.134,-0.184C0.102,-0.184 0.076,-0.195 0.056,-0.217C0.035,-0.238 0.025,-0.266 0.025,-0.3C0.025,-0.328 0.033,-0.349 0.049,-0.365C0.065,-0.38 0.09,-0.387 0.124,-0.387L0.35,-0.387Z" style="fill:rgb(211,78,78);fill-rule:nonzero;"/>
                            </g>
                            <g transform="matrix(150,0,0,150,307.4,0)">
                                <path d="M0.343,-0.045L0.233,0.02L0.05,-0.255C0.039,-0.272 0.031,-0.286 0.026,-0.297C0.021,-0.308 0.019,-0.319 0.019,-0.33C0.019,-0.347 0.026,-0.361 0.041,-0.371C0.055,-0.381 0.074,-0.386 0.098,-0.386L0.115,-0.364C0.128,-0.345 0.144,-0.336 0.163,-0.336C0.183,-0.336 0.2,-0.344 0.213,-0.359C0.226,-0.374 0.232,-0.397 0.232,-0.428C0.232,-0.455 0.228,-0.478 0.22,-0.498C0.212,-0.518 0.204,-0.534 0.195,-0.545L-0.01,-0.545L-0.01,-0.639L0.707,-0.639L0.707,-0.545L0.624,-0.545L0.624,-0L0.501,-0L0.501,-0.237C0.492,-0.233 0.48,-0.23 0.465,-0.227C0.45,-0.224 0.432,-0.223 0.409,-0.223C0.385,-0.223 0.361,-0.226 0.336,-0.233C0.311,-0.24 0.29,-0.249 0.272,-0.26C0.26,-0.253 0.248,-0.248 0.234,-0.245C0.222,-0.242 0.209,-0.24 0.196,-0.24L0.189,-0.24L0.343,-0.045ZM0.395,-0.324C0.42,-0.324 0.442,-0.327 0.459,-0.332C0.475,-0.337 0.49,-0.345 0.501,-0.354L0.501,-0.545L0.32,-0.545C0.327,-0.535 0.335,-0.519 0.344,-0.497C0.353,-0.475 0.357,-0.448 0.357,-0.416C0.357,-0.4 0.355,-0.385 0.352,-0.371C0.349,-0.356 0.344,-0.343 0.339,-0.332C0.348,-0.329 0.357,-0.327 0.367,-0.326C0.376,-0.325 0.386,-0.324 0.395,-0.324Z" style="fill:rgb(211,78,78);fill-rule:nonzero;"/>
                            </g>
                            <g transform="matrix(150,0,0,150,411.95,0)">
                            </g>
                        </g>
                    </g>
                </g>
            </g>
        </g>
    </g>
</svg>
